PathFileType	4	(X/Y/Z)	D:\TRACE\v60_Jaco2_6-2-23\BothDRS_Motion3_10-v60.trc
DataRate	CameraRate	NumFrames	NumMarkers	Units	OrigDataRate	OrigDataStartFrame	OrigNumFrames
100.00	100.00	      31	9	mm	100.00	876	      7000
Frame#	Time	front left toe			Front right toe			aft left toe			aft right toe			Arm			FL body			FR body			AL Body			AR Body			
		X1	Y1	Z1	X2	Y2	Z2	X3	Y3	Z3	X4	Y4	Z4	X5	Y5	Z5	X6	Y6	Z6	X7	Y7	Z7	X8	Y8	Z8	X9	Y9	Z9	

876	8.750	-158.19937	41.42111	-182.08804	200.76521	1.90339	-199.58345	-183.82928	33.51110	411.02798	189.26120	73.19264	452.34229	76.56942	1134.16260	-414.18793	-52.09798	501.18811	-365.47870	105.47263	491.73288	-360.35989	-69.93200	594.74585	574.57922	82.49197	575.27954	578.96985	
877	8.760	-157.63190	30.52644	-179.90196	200.88008	1.93647	-199.36237	-183.82202	33.41068	411.07547	189.27779	63.79721	454.17041	77.32546	1134.26025	-413.78821	-51.50040	501.11319	-364.51617	106.18749	491.67172	-359.23273	-70.56659	594.21033	575.49762	81.09003	575.00842	580.09479	
878	8.770	-157.30830	21.21248	-178.46249	200.90849	1.95560	-199.22462	-183.85727	33.32499	411.09048	188.79581	54.35822	455.45139	77.72281	1134.38782	-413.43164	-50.69631	501.05960	-363.51117	106.68450	492.12262	-357.86987	-71.29416	593.79517	576.67999	79.83201	574.70923	581.53461	
879	8.780	-157.24025	13.58169	-177.40024	201.05130	2.00494	-199.06786	-183.94704	33.24137	411.09985	189.22488	46.49353	456.46149	78.03467	1134.35168	-412.89868	-49.80448	501.01117	-362.45059	108.36400	491.71161	-356.88205	-71.99947	593.26483	577.61279	78.53677	574.38660	582.64581	
880	8.790	-157.18405	6.60205	-176.59637	201.24501	2.10339	-198.78467	-184.41631	33.53229	411.39148	189.21086	39.48606	457.41257	78.32936	1134.33228	-412.48807	-49.46350	501.27112	-361.73865	109.00973	492.00104	-355.79047	-72.53789	592.73767	579.08380	77.23186	573.64087	583.93823	
881	8.800	-157.73389	6.37810	-178.59422	201.34550	2.03735	-198.62708	-184.37306	33.31594	411.52841	189.41702	36.51322	456.33307	78.82931	1134.33765	-411.98004	-48.71028	501.44086	-360.84106	109.32232	492.05707	-354.37433	-73.10540	591.92346	579.76929	76.40514	573.11877	585.08630	
882	8.810	-158.68259	6.34007	-179.39862	201.48238	2.10933	-198.44595	-184.28563	33.34612	411.45081	189.72467	34.65911	457.47180	79.38398	1134.40381	-411.62683	-47.97486	501.50525	-359.48245	109.57905	492.80408	-352.88452	-73.81772	591.82654	581.18915	76.20252	572.87140	586.40320	
883	8.820	-158.67987	3.77708	-178.19261	201.54338	2.30352	-198.33446	-183.71121	33.00049	411.47308	190.33095	35.41043	455.83572	80.31275	1134.73206	-411.14563	-47.39149	502.05322	-358.30060	111.11572	492.69565	-351.46143	-74.27122	592.79547	582.71985	75.63250	573.35773	587.68073	
884	8.830	-158.55673	4.19080	-177.04688	201.61095	5.60327	-198.31097	-183.60733	35.26847	411.98520	189.99709	34.39548	457.95370	81.14087	1135.29773	-410.79758	-46.48268	502.51987	-356.66458	110.98802	493.38684	-350.06152	-75.34500	592.40186	582.86627	74.53520	574.60181	589.49695	
885	8.840	-158.36191	4.52615	-177.45717	198.39624	8.66030	-195.59436	-181.50150	37.41340	413.90210	189.93430	33.92206	457.39764	81.87608	1136.13086	-410.35388	-46.01308	503.53928	-356.02008	112.34488	494.26895	-349.08130	-75.58014	592.51794	584.05530	73.84204	574.83820	590.61316	
886	8.850	-158.43977	4.35545	-178.00778	194.87111	13.18669	-192.22429	-178.40596	44.62583	414.64941	190.01999	34.10149	457.74451	82.53078	1137.05017	-410.04633	-44.84023	503.88611	-354.81274	113.28765	494.99048	-347.73032	-76.73670	592.49695	584.72229	72.95010	574.64716	591.71130	
887	8.860	-158.56592	4.34362	-177.63744	193.87856	23.03084	-190.61971	-175.84895	52.84233	416.03757	189.95018	33.71828	457.62497	83.03641	1137.66028	-409.63696	-44.32866	504.16251	-354.05762	113.93816	495.19089	-346.82031	-77.20921	592.31146	585.56787	72.52910	574.61737	592.82404	
888	8.870	-158.57651	4.28702	-177.65987	192.23167	33.31660	-189.65625	-174.57935	63.92999	416.04413	189.88339	33.54636	457.94385	83.72202	1138.04199	-409.26138	-43.98074	504.61465	-353.53687	114.36677	495.32059	-345.77695	-77.61109	591.85486	586.26270	72.13665	574.21271	593.54053	
889	8.880	-158.45726	4.22124	-177.55498	194.34274	45.84566	-188.71533	-175.38022	75.50444	416.29486	190.04617	33.21923	458.15137	84.38432	1138.14722	-408.84052	-44.04763	504.90460	-352.90103	114.65234	495.41135	-345.06967	-77.63147	591.24994	587.08081	72.08629	573.77008	594.56079	
890	8.890	-158.38928	4.20435	-177.44638	196.90884	58.29308	-187.07825	-178.15080	87.87894	416.64929	190.24623	32.88923	458.17902	84.55106	1137.99243	-408.93256	-43.73809	504.51974	-352.05804	114.64013	495.38226	-344.18533	-77.90492	590.65387	587.84540	72.56834	572.88434	595.48071	
891	8.900	-158.31429	3.99052	-177.43758	199.90398	70.79883	-185.65784	-181.06427	100.08395	417.54755	190.39752	32.72007	458.23529	84.47475	1137.69910	-409.22455	-43.55664	504.45239	-351.36813	114.10445	495.28397	-343.28354	-77.47572	589.56354	588.66418	72.78526	571.77612	595.96344	
892	8.910	-158.27773	3.85246	-177.35155	203.23720	83.29214	-182.89038	-183.67795	112.29585	418.97998	190.72044	32.76354	458.28873	84.36849	1137.29834	-409.56409	-43.15201	504.00177	-350.36038	114.22284	494.88422	-342.59509	-77.73686	588.92511	589.34094	72.44414	571.03900	596.85712	
893	8.920	-158.33572	3.88742	-177.28188	205.35980	94.40570	-180.44174	-184.79132	123.41307	420.66119	190.81535	32.83879	458.46924	84.26340	1136.76331	-410.04446	-43.37971	503.93573	-350.15848	115.17607	494.61722	-342.23862	-77.56367	588.13464	590.06097	72.63073	570.53082	597.69568	
894	8.930	-158.21127	3.83559	-177.24174	206.38425	105.04534	-178.17023	-186.09848	134.50511	422.76019	191.10399	32.52217	458.50211	84.43597	1136.26123	-410.68973	-43.25163	503.89630	-349.55115	115.23916	494.63809	-341.68442	-77.25838	587.77765	590.76135	72.53143	570.17023	598.34387	
895	8.940	-158.20485	3.76292	-177.04083	207.99498	114.57337	-175.75114	-186.49077	144.00343	424.22281	191.23724	32.27183	458.65430	84.41898	1135.81836	-411.56097	-42.77487	503.48566	-348.42023	115.37617	494.21960	-341.01227	-77.37929	587.53467	591.26477	72.77287	570.04041	598.82452	
896	8.950	-158.13589	3.71422	-177.00108	209.47836	122.44252	-173.70396	-186.71947	151.94431	425.97470	191.43939	32.21614	458.79163	84.48322	1135.47278	-412.24600	-43.09836	503.45697	-348.35358	115.42572	494.06738	-340.36087	-77.26567	587.69000	591.92828	72.77009	570.02167	599.49915	
897	8.960	-158.05307	3.79454	-177.04895	210.17931	126.93786	-171.50227	-187.00240	157.31137	427.94797	191.57697	32.06903	458.77808	84.56602	1135.06531	-412.94064	-42.87582	503.11719	-347.55093	114.91254	493.97360	-339.39624	-76.92026	587.69843	592.63922	72.94057	570.12750	600.23694	
898	8.970	-157.95645	3.75058	-176.91820	212.42459	128.96474	-168.05994	-187.53926	159.82602	430.38443	191.76488	31.96070	458.74432	84.69219	1134.90125	-413.77432	-42.61395	502.92056	-346.74081	114.83912	493.91776	-339.03412	-76.77289	587.91699	593.20538	73.13748	570.21454	600.69464	
899	8.980	-157.75618	3.87719	-176.84389	213.93996	127.99833	-165.34743	-188.87164	159.44720	433.11545	191.96780	31.88956	458.76126	84.89587	1134.85144	-414.64114	-42.30916	502.92850	-346.18201	115.60804	493.82327	-338.88638	-76.31180	588.18488	593.71887	73.57323	570.26379	601.04938	
900	8.990	-157.56999	4.01367	-176.84497	215.71210	124.41162	-162.01625	-189.90358	156.80055	435.73459	192.07986	31.89556	458.82364	85.06982	1134.71460	-415.60730	-42.81030	503.36368	-346.10648	115.70568	493.69971	-338.27145	-75.47469	588.55603	594.38367	74.39792	570.46429	601.61774	
901	9.000	-157.39598	4.13616	-176.85667	216.14867	119.26115	-159.75517	-190.69525	153.43098	438.01111	192.13933	31.83919	458.82898	85.14770	1134.47290	-416.63516	-42.73049	503.48514	-345.42191	115.85503	493.82327	-337.63916	-75.19011	588.64148	594.76288	75.20507	570.66089	602.16071	
902	9.010	-157.19308	4.19064	-176.81670	217.18864	112.90027	-157.56090	-190.12367	147.88504	440.74286	192.22528	31.81059	458.89990	85.84409	1134.17896	-417.56229	-42.57254	503.47147	-344.79016	115.86356	493.94577	-337.27060	-74.65269	588.73615	595.11737	75.67928	570.60718	602.31927	
903	9.020	-157.01607	4.19703	-176.72209	218.30559	105.69520	-155.66437	-189.06702	140.91212	443.32581	192.43988	31.78666	458.98581	86.10099	1133.87048	-418.32623	-42.31315	503.39767	-344.49396	115.93699	493.96106	-336.98248	-73.96497	588.77460	595.67261	75.88417	570.78198	602.76880	
904	9.030	-156.74173	4.19069	-176.75751	218.65343	97.22514	-154.18132	-188.79204	133.50383	444.98468	192.67569	31.71535	459.11359	86.57934	1133.60071	-419.07874	-41.82398	503.17389	-343.84702	116.09112	493.93866	-336.73032	-73.59975	588.76819	595.92145	76.47675	570.82855	603.06531	
905	9.040	-156.52014	4.21157	-176.77264	220.42255	88.27478	-152.65921	-187.89502	124.44899	446.63998	192.87952	31.70443	459.13721	86.92990	1133.41602	-419.63046	-41.74891	503.22000	-343.70422	115.31229	494.28149	-336.36569	-72.91463	588.87848	596.26959	77.48546	570.72327	603.32770	
906	9.050	-156.33423	4.21946	-176.76801	221.39357	77.89791	-151.36253	-187.82571	114.82137	448.38483	193.31339	31.71182	459.19064	87.40806	1133.02576	-420.09796	-41.68246	503.18622	-343.55380	115.48720	494.21420	-336.19162	-72.36487	588.88129	596.47314	78.12762	570.61224	603.52673	
